<?xml version="1.0" standalone="no"?>
<!DOCTYPE svg PUBLIC "-//W3C//DTD SVG 20010904//EN"
 "http://www.w3.org/TR/2001/REC-SVG-20010904/DTD/svg10.dtd">
<svg version="1.0" xmlns="http://www.w3.org/2000/svg"
 width="1500.000000pt" height="223.000000pt" viewBox="0 0 1500.000000 223.000000"
 preserveAspectRatio="xMidYMid meet">

<g transform="translate(0.000000,223.000000) scale(0.100000,-0.100000)"
fill="#000000" stroke="none">
<path d="M3513 2098 c-147 -125 -308 -293 -441 -458 -115 -144 -300 -424 -401
-609 -67 -120 -87 -150 -95 -138 -6 8 -105 179 -221 381 l-210 366 -158 0
c-87 0 -157 -4 -155 -9 15 -39 664 -1158 669 -1153 4 4 28 57 54 117 149 348
392 750 630 1042 109 134 311 334 423 421 l94 72 -76 0 c-70 0 -78 -2 -113
-32z"/>
<path d="M7495 1656 c-230 -45 -353 -157 -355 -322 0 -100 43 -177 132 -236
75 -49 158 -80 373 -139 211 -57 275 -82 328 -128 97 -86 51 -210 -95 -261
-177 -61 -441 -26 -661 87 -85 44 -89 45 -103 27 -38 -49 -37 -52 18 -84 148
-85 319 -130 523 -137 177 -7 270 8 382 61 123 59 183 138 191 253 6 87 -19
154 -78 214 -80 80 -171 119 -444 190 -202 52 -284 84 -328 126 -58 55 -61
126 -8 187 106 120 447 124 703 8 l68 -31 -3 52 -3 52 -70 26 c-38 15 -104 35
-145 44 -103 22 -335 28 -425 11z"/>
<path d="M10077 1655 c-164 -31 -325 -117 -416 -222 -50 -57 -105 -168 -120
-241 -16 -76 -14 -204 5 -276 25 -96 71 -174 150 -253 135 -134 325 -203 565
-203 131 0 201 10 310 46 248 81 407 272 426 512 23 298 -163 535 -489 623
-99 27 -323 34 -431 14z m318 -77 c62 -16 114 -46 172 -100 106 -101 149 -238
141 -452 -5 -108 -10 -143 -31 -200 -66 -177 -187 -273 -368 -292 -186 -18
-357 72 -433 229 -110 226 -72 561 79 712 103 104 276 144 440 103z"/>
<path d="M3758 1654 c-3 -5 -146 -254 -318 -554 -172 -300 -321 -560 -332
-577 l-20 -33 55 0 55 0 67 120 67 120 328 0 329 0 68 -120 68 -120 153 0 c83
0 152 2 152 4 0 2 -145 258 -323 567 -178 310 -328 572 -334 583 -6 10 -13 15
-15 10z m41 -587 c72 -128 131 -236 131 -240 0 -4 -121 -7 -270 -7 -148 0
-270 3 -270 6 0 11 265 474 271 474 4 0 66 -105 138 -233z"/>
<path d="M11320 1075 l0 -585 50 0 50 0 0 395 c0 217 2 395 5 395 3 0 50 -33
103 -73 53 -40 295 -219 537 -397 242 -178 446 -327 453 -333 9 -7 12 109 12
577 l0 586 -50 0 -50 0 -2 -395 -3 -395 -549 405 c-302 223 -551 405 -552 405
-2 0 -4 -263 -4 -585z"/>
<path d="M1030 1634 c0 -17 665 -1163 671 -1156 15 14 149 254 149 265 0 6
-114 210 -252 453 l-253 443 -157 1 c-87 0 -158 -3 -158 -6z"/>
<path d="M4662 1063 c182 -318 334 -582 338 -586 4 -4 30 32 57 80 28 48 179
312 336 586 l286 497 -54 0 -53 0 -233 -411 c-154 -273 -235 -406 -240 -397
-4 7 -109 191 -232 408 l-224 395 -156 3 -156 3 331 -578z"/>
<path d="M5870 1065 l0 -575 515 0 515 0 0 40 0 40 -375 0 -375 0 0 235 0 235
323 2 322 3 3 43 3 42 -325 0 -326 0 0 210 0 210 370 0 370 0 0 45 0 45 -510
0 -510 0 0 -575z"/>
<path d="M8300 1595 l0 -45 220 0 220 0 0 -530 0 -530 140 0 140 0 0 530 0
530 220 0 220 0 0 45 0 45 -580 0 -580 0 0 -45z"/>
<path d="M12960 1065 l0 -575 515 0 515 0 0 40 0 40 -375 0 -375 0 0 235 0
235 325 0 325 0 0 45 0 45 -325 0 -325 0 0 210 0 210 370 0 370 0 0 45 0 45
-510 0 -510 0 0 -575z"/>
</g>
</svg>
