<svg xmlns="http://www.w3.org/2000/svg" viewBox="0 0 32 32">
  <path fill="#4EAA25" d="M28.057 6.53L17.952.532a3.8 3.8 0 0 0-3.88 0L3.965 6.53A4.03 4.03 0 0 0 2 10.002v11.996c0 1.44.764 2.77 2 3.472l10.105 5.998a3.8 3.8 0 0 0 3.88 0l10.105-5.998c1.236-.702 2-2.032 2-3.472V10.002c0-1.44-.764-2.77-2-3.472zm-4.38 9.425c0 .374-.2.718-.524.904l-8.455 4.862c-.324.186-.722.186-1.046 0l-2.068-1.19a.999.999 0 0 1-.504-.867v-2.146c0-.347.182-.668.478-.847l2.824-1.72c.296-.18.666-.18.962 0l2.068 1.19a.999.999 0 0 1 .504.867v1.2l4.995-2.878a.982.982 0 0 1 1.046 0l1.431.825c.324.186.524.53.524.904v-.104zm-1.046-4.862l-1.431.825a.982.982 0 0 1-1.046 0L15.16 9.04a.999.999 0 0 1-.504-.867V6.027c0-.347.182-.668.478-.847l2.824-1.72c.296-.18.666-.18.962 0l2.068 1.19a.999.999 0 0 1 .504.867v1.2l4.995-2.878a.982.982 0 0 1 1.046 0l1.431.825c.324.186.524.53.524.904v1.947c0 .374-.2.718-.524.904l-8.455 4.862c-.324.186-.722.186-1.046 0l-2.068-1.19a.999.999 0 0 1-.504-.867v-2.146c0-.347.182-.668.478-.847l2.824-1.72c.296-.18.666-.18.962 0l2.068 1.19a.999.999 0 0 1 .504.867v1.2l4.995-2.878a.982.982 0 0 1 1.046 0l1.431.825c.324.186.524.53.524.904v-.104z"/>
</svg>
