<svg xmlns="http://www.w3.org/2000/svg" viewBox="0 0 24 24">
  <path fill="#E97627" d="M11.654 5.393H9.69V3.429h1.964zm4.893 0h-1.964V3.429h1.964zm-4.893 4.893H9.69V8.322h1.964zm4.893 0h-1.964V8.322h1.964zM6.761 5.393H4.797V3.429h1.964zm0 4.893H4.797V8.322h1.964zm9.786-4.893h-1.964V3.429h1.964zm0 4.893h-1.964V8.322h1.964zM6.761 15.172H4.797v-1.964h1.964zm9.786 0h-1.964v-1.964h1.964zm-4.893 0H9.69v-1.964h1.964zm4.893 0h-1.964v-1.964h1.964zM6.761 20.065H4.797v-1.964h1.964zm9.786 0h-1.964v-1.964h1.964zm-4.893 0H9.69v-1.964h1.964zm4.893 0h-1.964v-1.964h1.964zM21.547 5.393h-1.964V3.429h1.964zm0 4.893h-1.964V8.322h1.964zM1.868 5.393H0V3.429h1.868zm0 4.893H0V8.322h1.868zm19.679 4.886h-1.964v-1.964h1.964zm0 4.893h-1.964v-1.964h1.964zM1.868 15.172H0v-1.964h1.868zm0 4.893H0v-1.964h1.868z"/>
</svg>
